<svg width="1500" height="500" viewBox="0 0 1500 500" fill="none" xmlns="http://www.w3.org/2000/svg">
<g clip-path="url(#clip0_1_2)">
<rect width="1500" height="500" fill="black"/>
<path d="M568.169 189.3V186.5H589.769V189.3H568.169ZM613.145 189.3V186.5H622.745V189.3H613.145ZM624.138 189.3V186.5H633.738V189.3H624.138ZM635.13 189.3V186.5H644.73V189.3H635.13ZM646.122 189.3V186.5H655.722V189.3H646.122ZM657.114 189.3V186.5H666.714V189.3H657.114ZM668.106 189.3V186.5H677.706V189.3H668.106ZM690.091 189.3V186.5H699.691V189.3H690.091ZM744.044 189.3V186.5H765.644V189.3H744.044ZM557.984 214.2L564.884 195.4H567.984L561.084 214.2H557.984ZM579.969 214.2L586.869 195.4H589.969L583.069 214.2H579.969ZM601.953 214.2L608.853 195.4H611.953L605.053 214.2H601.953ZM623.938 214.2L630.838 195.4H633.938L627.038 214.2H623.938ZM645.114 215.3V212.5H666.714V215.3H645.114ZM685.778 214.2L678.878 195.4H681.978L688.878 214.2H685.778ZM704.383 214.2V195.4H707.383V214.2H704.383ZM733.859 214.2L740.759 195.4H743.859L736.959 214.2H733.859ZM755.844 214.2L762.744 195.4H765.844L758.944 214.2H755.844ZM546.992 240.2L553.892 221.4H556.992L550.092 240.2H546.992ZM568.977 240.2L575.877 221.4H578.977L572.077 240.2H568.977ZM590.961 240.2L597.861 221.4H600.961L594.061 240.2H590.961ZM612.945 240.2L619.845 221.4H622.945L616.045 240.2H612.945ZM634.93 240.2L641.83 221.4H644.93L638.03 240.2H634.93ZM646.122 241.3V238.5H655.722V241.3H646.122ZM656.914 240.2L663.814 221.4H666.914L660.014 240.2H656.914ZM678.898 240.2L685.798 221.4H688.898L681.998 240.2H678.898ZM704.383 240.2V221.4H707.383V240.2H704.383ZM722.867 240.2L729.767 221.4H732.867L725.967 240.2H722.867ZM744.852 240.2L751.752 221.4H754.852L747.952 240.2H744.852ZM536 266.2L542.9 247.4H546L539.1 266.2H536ZM557.984 266.2L564.884 247.4H567.984L561.084 266.2H557.984ZM569.177 267.3V264.5H578.777V267.3H569.177ZM579.969 266.2L586.869 247.4H589.969L583.069 266.2H579.969ZM601.953 266.2L608.853 247.4H611.953L605.053 266.2H601.953ZM624.138 267.3V264.5H633.738V267.3H624.138ZM635.13 267.3V264.5H644.73V267.3H635.13ZM646.122 267.3V264.5H655.722V267.3H646.122ZM657.114 267.3V264.5H666.714V267.3H657.114ZM667.906 266.2L674.806 247.4H677.906L671.006 266.2H667.906ZM682.398 266.2V247.4H685.398V266.2H682.398ZM704.383 266.2V247.4H707.383V266.2H704.383ZM711.875 266.2L718.775 247.4H721.875L714.975 266.2H711.875ZM733.859 266.2L740.759 247.4H743.859L736.959 266.2H733.859ZM542.88 292.2L535.98 273.4H539.08L545.98 292.2H542.88ZM547.192 293.3V290.5H556.792V293.3H547.192ZM558.184 293.3V290.5H567.784V293.3H558.184ZM569.177 293.3V290.5H578.777V293.3H569.177ZM580.169 293.3V290.5H589.769V293.3H580.169ZM590.961 292.2L597.861 273.4H600.961L594.061 292.2H590.961ZM602.153 293.3V290.5H611.753V293.3H602.153ZM612.945 292.2L619.845 273.4H622.945L616.045 292.2H612.945ZM682.398 292.2V273.4H685.398V292.2H682.398ZM690.091 293.3V290.5H699.691V293.3H690.091ZM701.083 293.3V290.5H710.683V293.3H701.083ZM712.075 293.3V290.5H721.675V293.3H712.075ZM722.867 292.2L729.767 273.4H732.867L725.967 292.2H722.867Z" fill="#D73333"/>
<path d="M800.013 189.3V186.5H809.613V189.3H800.013ZM811.005 189.3V186.5H820.605V189.3H811.005ZM821.997 189.3V186.5H831.597V189.3H821.997ZM832.989 189.3V186.5H842.589V189.3H832.989ZM930.911 189.3V186.5H952.511V189.3H930.911ZM788.82 214.2L795.72 195.4H798.82L791.92 214.2H788.82ZM809.997 215.3V212.5H831.597V215.3H809.997ZM845.081 214.4V211.36C845.828 211.173 846.468 210.86 847.001 210.42C847.548 209.98 847.961 209.44 848.241 208.8C848.535 208.147 848.681 207.42 848.681 206.62V203C848.681 202.173 848.535 201.433 848.241 200.78C847.961 200.127 847.555 199.58 847.021 199.14C846.488 198.7 845.841 198.387 845.081 198.2V195.2C846.468 195.573 847.648 196.133 848.621 196.88C849.608 197.613 850.361 198.5 850.881 199.54C851.415 200.58 851.681 201.733 851.681 203V206.62C851.681 208.553 851.108 210.193 849.961 211.54C848.828 212.873 847.201 213.827 845.081 214.4ZM854.973 215.3V212.5H864.573V215.3H854.973ZM865.966 215.3V212.5H875.566V215.3H865.966ZM876.958 215.3V212.5H886.558V215.3H876.958ZM887.95 215.3V212.5H897.55V215.3H887.95ZM920.727 214.2L927.627 195.4H930.727L923.827 214.2H920.727ZM942.711 214.2L949.611 195.4H952.711L945.811 214.2H942.711ZM953.903 215.3V212.5H963.503V215.3H953.903ZM777.828 240.2L784.728 221.4H787.828L780.928 240.2H777.828ZM799.005 241.3V238.5H820.605V241.3H799.005ZM843.781 240.2L850.681 221.4H853.781L846.881 240.2H843.781ZM864.958 241.3V238.5H886.558V241.3H864.958ZM905.622 240.2L898.722 221.4H901.822L908.722 240.2H905.622ZM909.734 240.2L916.634 221.4H919.734L912.834 240.2H909.734ZM930.911 241.3V238.5H952.511V241.3H930.911ZM953.703 240.2L960.603 221.4H963.703L956.803 240.2H953.703ZM766.836 266.2L773.736 247.4H776.836L769.936 266.2H766.836ZM788.82 266.2L795.72 247.4H798.82L791.92 266.2H788.82ZM800.013 267.3V264.5H809.613V267.3H800.013ZM810.805 266.2L817.705 247.4H820.805L813.905 266.2H810.805ZM832.789 266.2L839.689 247.4H842.789L835.889 266.2H832.789ZM854.773 266.2L861.673 247.4H864.773L857.873 266.2H854.773ZM865.966 267.3V264.5H875.566V267.3H865.966ZM876.758 266.2L883.658 247.4H886.758L879.858 266.2H876.758ZM898.742 266.2L905.642 247.4H908.742L901.842 266.2H898.742ZM920.727 266.2L927.627 247.4H930.727L923.827 266.2H920.727ZM931.919 267.3V264.5H941.519V267.3H931.919ZM755.844 292.2L762.744 273.4H765.844L758.944 292.2H755.844ZM767.036 293.3V290.5H776.636V293.3H767.036ZM778.028 293.3V290.5H787.628V293.3H778.028ZM789.02 293.3V290.5H798.62V293.3H789.02ZM800.013 293.3V290.5H809.613V293.3H800.013ZM811.005 293.3V290.5H820.605V293.3H811.005ZM821.797 292.2L828.697 273.4H831.797L824.897 292.2H821.797ZM839.669 292.2L832.769 273.4H835.869L842.769 292.2H839.669ZM843.981 293.3V290.5H853.581V293.3H843.981ZM854.973 293.3V290.5H864.573V293.3H854.973ZM865.966 293.3V290.5H875.566V293.3H865.966ZM876.958 293.3V290.5H886.558V293.3H876.958ZM887.75 292.2L894.65 273.4H897.75L890.85 292.2H887.75ZM905.622 292.2L898.722 273.4H901.822L908.722 292.2H905.622ZM908.927 293.3V290.5H930.527V293.3H908.927ZM931.719 292.2L938.619 273.4H941.719L934.819 292.2H931.719Z" fill="white"/>
<g filter="url(#filter0_f_1_2)">
<path fill-rule="evenodd" clip-rule="evenodd" d="M1466.22 -79.9784C1517.82 -78.8776 1557.94 -37.7593 1590.27 2.48961C1618.69 37.8734 1629.7 81.2767 1632.16 126.605C1634.82 175.433 1632.55 224.922 1604.52 264.984C1570.75 313.264 1525.01 367.384 1466.22 363.834C1408.2 360.331 1382.83 292.212 1343.66 249.235C1307.65 209.721 1251.49 180.061 1250.03 126.605C1248.56 72.5984 1297.72 34.3957 1336.77 -2.91851C1374.52 -38.9885 1414.04 -81.0917 1466.22 -79.9784Z" fill="#D73333" fill-opacity="0.59"/>
</g>
<g filter="url(#filter1_f_1_2)">
<path fill-rule="evenodd" clip-rule="evenodd" d="M147.884 366.008C214.084 406.295 328.799 380.78 353.358 454.299C377.495 526.552 296.603 591.524 240.419 643.009C197.631 682.218 140.592 691.031 83.5356 701.551C26.5953 712.05 -29.6979 724.012 -83.5306 702.74C-154.144 674.837 -250.54 643.205 -255.868 567.438C-261.247 490.944 -151.173 466.826 -104.394 406.04C-62.8155 352.011 -69.5675 248.566 -2.25679 237.885C65.3141 227.163 89.4576 330.452 147.884 366.008Z" fill="#D73333" fill-opacity="0.59"/>
</g>
<path d="M1368.32 479V464.4H1373.02C1374.5 464.4 1375.68 464.74 1376.56 465.42C1377.44 466.087 1377.88 466.993 1377.88 468.14C1377.88 468.78 1377.73 469.34 1377.42 469.82C1377.13 470.3 1376.73 470.673 1376.22 470.94C1375.73 471.207 1375.19 471.34 1374.6 471.34V471.4C1375.25 471.387 1375.85 471.507 1376.38 471.76C1376.93 472.013 1377.37 472.393 1377.7 472.9C1378.03 473.407 1378.2 474.033 1378.2 474.78C1378.2 475.633 1377.99 476.38 1377.58 477.02C1377.18 477.647 1376.61 478.133 1375.86 478.48C1375.11 478.827 1374.23 479 1373.2 479H1368.32ZM1371.22 476.58H1373.08C1373.73 476.58 1374.25 476.407 1374.62 476.06C1374.99 475.713 1375.18 475.233 1375.18 474.62C1375.18 474.007 1374.99 473.527 1374.62 473.18C1374.25 472.82 1373.73 472.64 1373.08 472.64H1371.22V476.58ZM1371.22 470.28H1372.98C1373.57 470.28 1374.03 470.127 1374.36 469.82C1374.69 469.5 1374.86 469.073 1374.86 468.54C1374.86 467.993 1374.69 467.573 1374.36 467.28C1374.03 466.973 1373.57 466.82 1372.98 466.82H1371.22V470.28ZM1381.13 482.6L1382.63 478.46L1378.51 468H1381.77L1383.43 472.8C1383.55 473.16 1383.67 473.6 1383.79 474.12C1383.93 474.627 1384.03 475.04 1384.09 475.36C1384.16 475.04 1384.25 474.627 1384.37 474.12C1384.51 473.6 1384.63 473.16 1384.75 472.8L1386.35 468H1389.47L1384.27 482.6H1381.13ZM1406.48 482.58C1405.24 482.58 1404.17 482.347 1403.28 481.88C1402.38 481.413 1401.69 480.747 1401.2 479.88C1400.72 479.013 1400.48 477.98 1400.48 476.78V470C1400.48 468.8 1400.71 467.767 1401.18 466.9C1401.64 466.033 1402.31 465.367 1403.18 464.9C1404.04 464.433 1405.08 464.2 1406.28 464.2C1407.38 464.2 1408.33 464.407 1409.12 464.82C1409.92 465.233 1410.52 465.807 1410.94 466.54C1411.36 467.26 1411.58 468.08 1411.58 469V477.7H1409.36L1409.56 476.6H1408.92L1409.18 475.98C1409.18 476.553 1408.98 477.02 1408.58 477.38C1408.18 477.727 1407.64 477.9 1406.98 477.9C1406.16 477.9 1405.52 477.613 1405.06 477.04C1404.6 476.453 1404.38 475.64 1404.38 474.6V472.4C1404.38 471.36 1404.6 470.553 1405.06 469.98C1405.52 469.393 1406.16 469.1 1406.98 469.1C1407.64 469.1 1408.18 469.273 1408.58 469.62C1408.98 469.967 1409.18 470.427 1409.18 471L1408.88 470.6H1409.58L1409.18 469.26V469C1409.18 468.52 1409.06 468.073 1408.82 467.66C1408.59 467.247 1408.26 466.92 1407.84 466.68C1407.41 466.427 1406.89 466.3 1406.28 466.3C1405.2 466.3 1404.36 466.62 1403.76 467.26C1403.17 467.9 1402.88 468.813 1402.88 470V476.78C1402.88 477.94 1403.18 478.827 1403.8 479.44C1404.42 480.067 1405.32 480.38 1406.48 480.38H1407.88V482.58H1406.48ZM1407.98 476.2C1408.4 476.2 1408.71 476.08 1408.9 475.84C1409.08 475.6 1409.18 475.187 1409.18 474.6V472.4C1409.18 471.893 1409.07 471.5 1408.86 471.22C1408.66 470.94 1408.36 470.8 1407.98 470.8C1407.59 470.8 1407.29 470.94 1407.08 471.22C1406.88 471.5 1406.78 471.893 1406.78 472.4V474.6C1406.78 475.173 1406.88 475.587 1407.08 475.84C1407.29 476.08 1407.59 476.2 1407.98 476.2ZM1416.99 479.2C1416 479.2 1415.15 479.02 1414.43 478.66C1413.71 478.287 1413.15 477.773 1412.75 477.12C1412.36 476.453 1412.17 475.68 1412.17 474.8V468.6C1412.17 467.72 1412.36 466.953 1412.75 466.3C1413.15 465.633 1413.71 465.12 1414.43 464.76C1415.15 464.387 1416 464.2 1416.97 464.2C1417.96 464.2 1418.8 464.387 1419.51 464.76C1420.23 465.12 1420.78 465.633 1421.17 466.3C1421.57 466.953 1421.77 467.72 1421.77 468.6V474.8C1421.77 475.68 1421.57 476.453 1421.17 477.12C1420.78 477.773 1420.23 478.287 1419.51 478.66C1418.8 479.02 1417.96 479.2 1416.99 479.2ZM1416.97 476.6C1417.6 476.6 1418.08 476.44 1418.43 476.12C1418.79 475.8 1418.97 475.36 1418.97 474.8V468.6C1418.97 468.04 1418.79 467.6 1418.43 467.28C1418.08 466.96 1417.6 466.8 1416.97 466.8C1416.34 466.8 1415.85 466.96 1415.49 467.28C1415.14 467.6 1414.97 468.04 1414.97 468.6V474.8C1414.97 475.36 1415.15 475.8 1415.51 476.12C1415.87 476.44 1416.36 476.6 1416.97 476.6ZM1416.97 473.08C1416.56 473.08 1416.22 472.947 1415.95 472.68C1415.7 472.413 1415.57 472.067 1415.57 471.64C1415.57 471.213 1415.7 470.873 1415.95 470.62C1416.22 470.367 1416.56 470.24 1416.97 470.24C1417.4 470.24 1417.74 470.367 1417.99 470.62C1418.24 470.873 1418.37 471.213 1418.37 471.64C1418.37 472.067 1418.24 472.413 1417.99 472.68C1417.74 472.947 1417.4 473.08 1416.97 473.08ZM1422.48 479L1426.28 473.3L1422.74 468H1426.08L1427.44 470.2C1427.55 470.373 1427.65 470.567 1427.74 470.78C1427.83 470.993 1427.91 471.167 1427.96 471.3C1428.01 471.167 1428.09 470.993 1428.18 470.78C1428.29 470.567 1428.39 470.373 1428.48 470.2L1429.84 468H1433.18L1429.66 473.3L1433.44 479H1430.1L1428.5 476.4C1428.39 476.213 1428.29 476.02 1428.18 475.82C1428.09 475.607 1428.01 475.433 1427.96 475.3C1427.91 475.433 1427.83 475.607 1427.74 475.82C1427.65 476.02 1427.55 476.213 1427.44 476.4L1425.82 479H1422.48ZM1440.09 479.2C1439.19 479.2 1438.47 478.94 1437.95 478.42C1437.43 477.887 1437.17 477.147 1437.17 476.2L1437.87 476.9H1437.17V479H1434.27V464.4H1437.27V467.4L1437.17 470.1H1437.87L1437.17 470.8C1437.17 469.853 1437.43 469.12 1437.95 468.6C1438.47 468.067 1439.19 467.8 1440.09 467.8C1441.2 467.8 1442.09 468.193 1442.75 468.98C1443.42 469.753 1443.75 470.793 1443.75 472.1V474.9C1443.75 476.22 1443.42 477.267 1442.75 478.04C1442.09 478.813 1441.2 479.2 1440.09 479.2ZM1439.01 476.6C1439.57 476.6 1440 476.447 1440.29 476.14C1440.6 475.82 1440.75 475.373 1440.75 474.8V472.2C1440.75 471.627 1440.6 471.187 1440.29 470.88C1440 470.56 1439.57 470.4 1439.01 470.4C1438.47 470.4 1438.04 470.56 1437.73 470.88C1437.43 471.187 1437.27 471.627 1437.27 472.2V474.8C1437.27 475.373 1437.43 475.82 1437.73 476.14C1438.04 476.447 1438.47 476.6 1439.01 476.6ZM1445.35 479V476.28H1449.15V470.7H1445.85V468H1451.95V476.28H1455.15V479H1445.35ZM1450.35 466.26C1449.8 466.26 1449.36 466.12 1449.03 465.84C1448.71 465.56 1448.55 465.18 1448.55 464.7C1448.55 464.22 1448.71 463.84 1449.03 463.56C1449.36 463.28 1449.8 463.14 1450.35 463.14C1450.89 463.14 1451.33 463.28 1451.65 463.56C1451.98 463.84 1452.15 464.22 1452.15 464.7C1452.15 465.18 1451.98 465.56 1451.65 465.84C1451.33 466.12 1450.89 466.26 1450.35 466.26ZM1460.96 479.2C1459.98 479.2 1459.13 479.02 1458.4 478.66C1457.68 478.287 1457.12 477.773 1456.72 477.12C1456.33 476.453 1456.14 475.68 1456.14 474.8V472.2C1456.14 471.32 1456.33 470.553 1456.72 469.9C1457.12 469.233 1457.68 468.72 1458.4 468.36C1459.13 467.987 1459.98 467.8 1460.96 467.8C1461.93 467.8 1462.77 467.987 1463.48 468.36C1464.2 468.72 1464.75 469.233 1465.14 469.9C1465.54 470.553 1465.74 471.32 1465.74 472.2V474.2H1459V474.8C1459 475.493 1459.16 476.02 1459.5 476.38C1459.83 476.727 1460.33 476.9 1461 476.9C1461.46 476.9 1461.84 476.82 1462.12 476.66C1462.41 476.5 1462.6 476.28 1462.7 476H1465.64C1465.4 476.96 1464.85 477.733 1464 478.32C1463.16 478.907 1462.14 479.2 1460.96 479.2ZM1462.88 472.66V472.16C1462.88 471.48 1462.72 470.96 1462.4 470.6C1462.09 470.24 1461.61 470.06 1460.96 470.06C1460.3 470.06 1459.81 470.247 1459.48 470.62C1459.16 470.993 1459 471.52 1459 472.2V472.5L1463.08 472.46L1462.88 472.66ZM1473.73 479C1472.96 479 1472.28 478.84 1471.69 478.52C1471.1 478.187 1470.64 477.727 1470.31 477.14C1469.99 476.553 1469.83 475.873 1469.83 475.1V467.1H1466.43V464.4H1472.83V475.1C1472.83 475.46 1472.94 475.753 1473.15 475.98C1473.38 476.193 1473.67 476.3 1474.03 476.3H1477.23V479H1473.73Z" fill="white"/>
</g>
<defs>
<filter id="filter0_f_1_2" x="1050" y="-280" width="783" height="844" filterUnits="userSpaceOnUse" color-interpolation-filters="sRGB">
<feFlood flood-opacity="0" result="BackgroundImageFix"/>
<feBlend mode="normal" in="SourceGraphic" in2="BackgroundImageFix" result="shape"/>
<feGaussianBlur stdDeviation="100" result="effect1_foregroundBlur_1_2"/>
</filter>
<filter id="filter1_f_1_2" x="-456.058" y="37.1088" width="1013.8" height="877.428" filterUnits="userSpaceOnUse" color-interpolation-filters="sRGB">
<feFlood flood-opacity="0" result="BackgroundImageFix"/>
<feBlend mode="normal" in="SourceGraphic" in2="BackgroundImageFix" result="shape"/>
<feGaussianBlur stdDeviation="100" result="effect1_foregroundBlur_1_2"/>
</filter>
<clipPath id="clip0_1_2">
<rect width="1500" height="500" fill="white"/>
</clipPath>
</defs>
</svg>
